<?xml version="1.0" standalone="no"?>
<!DOCTYPE svg PUBLIC "-//W3C//DTD SVG 20010904//EN"
 "http://www.w3.org/TR/2001/REC-SVG-20010904/DTD/svg10.dtd">
<svg version="1.0" xmlns="http://www.w3.org/2000/svg"
 width="242.000000pt" height="84.000000pt" viewBox="0 0 242.000000 84.000000"
 preserveAspectRatio="xMidYMid meet">

<g transform="translate(0.000000,84.000000) scale(0.100000,-0.100000)"
fill="#000000" stroke="none">
<path d="M1316 537 c-11 -8 -17 -23 -14 -38 2 -20 8 -24 38 -24 29 0 36 4 38
23 4 25 -13 52 -32 52 -7 0 -20 -6 -30 -13z"/>
<path d="M1187 493 c-4 -27 -9 -92 -13 -145 -6 -82 -4 -101 10 -123 16 -25 39
-31 70 -19 18 7 22 60 5 66 -7 2 -8 35 0 113 11 123 2 155 -43 155 -20 0 -24
-6 -29 -47z"/>
<path d="M1004 521 c-63 -27 -106 -138 -84 -216 17 -62 57 -97 119 -103 46 -4
53 -2 81 26 29 30 39 65 21 77 -5 3 -25 -2 -44 -11 -50 -24 -84 -13 -92 29 -7
38 13 106 36 120 24 15 49 1 49 -28 0 -21 5 -25 28 -25 35 0 52 16 52 51 0 47
-39 81 -96 85 -27 2 -58 0 -70 -5z"/>
<path d="M1636 494 c-11 -29 -6 -63 10 -72 13 -7 14 -13 5 -30 -15 -28 4 -40
29 -17 42 38 32 135 -14 135 -13 0 -27 -7 -30 -16z"/>
<path d="M1305 448 c-11 -29 -21 -195 -14 -215 9 -24 46 -40 60 -26 6 6 13 59
16 118 6 98 4 109 -12 121 -23 17 -44 18 -50 2z"/>
<path d="M1406 433 c-7 -38 -21 -243 -18 -268 3 -24 31 -47 52 -43 10 2 17 19
20 48 4 34 9 44 20 41 54 -14 69 -12 99 16 55 51 67 167 20 214 -22 22 -77 25
-104 5 -16 -11 -21 -11 -33 0 -23 24 -50 17 -56 -13z m136 -75 c17 -50 -38
-116 -63 -76 -13 20 -11 82 3 96 20 20 51 10 60 -20z"/>
<path d="M1784 450 c-62 -25 -94 -145 -55 -207 37 -60 151 -51 167 12 8 34 4
37 -34 23 -44 -17 -66 -2 -70 46 -5 59 39 93 52 41 7 -29 36 -34 56 -10 11 14
15 12 28 -14 9 -19 27 -35 48 -43 19 -7 33 -17 30 -23 -4 -11 -4 -11 -53 0
-29 6 -33 4 -39 -20 -9 -36 5 -47 65 -53 59 -5 96 13 112 56 15 39 -3 68 -56
94 -25 12 -45 26 -45 30 0 14 40 8 46 -7 13 -34 64 -9 64 31 0 40 -28 57 -84
51 -39 -3 -55 -10 -72 -32 -22 -27 -22 -27 -29 -6 -11 36 -80 52 -131 31z"/>
</g>
</svg>
